<svg id="FWD-LOGO-RGB_MAIN_COLOR" xmlns="http://www.w3.org/2000/svg" width="178" height="178" viewBox="0 0 178 178">
  <rect id="Rectangle_39" data-name="Rectangle 39" width="178" height="178" fill="#003d39"/>
  <g id="Group_36" data-name="Group 36" transform="translate(8.89 119.895)">
    <path id="Path_107" data-name="Path 107" d="M21.26,288.033a.575.575,0,0,1,.577-.573H34.373a.577.577,0,0,1,.577.573v3.3a.575.575,0,0,1-.577.573H25.985v4.361h6.9a.6.6,0,0,1,.577.573v3.3a.6.6,0,0,1-.577.573h-6.9v7.359a.6.6,0,0,1-.577.577H21.837a.578.578,0,0,1-.577-.577Z" transform="translate(-21.26 -287.155)" fill="#fff"/>
    <path id="Path_108" data-name="Path 108" d="M67.768,286.74A10.9,10.9,0,1,1,56.9,297.67,10.882,10.882,0,0,1,67.768,286.74Zm0,16.956a6.055,6.055,0,1,0-6.025-6.025A6.066,6.066,0,0,0,67.768,303.7Z" transform="translate(-41.997 -286.736)" fill="#fff"/>
    <path id="Path_109" data-name="Path 109" d="M117.25,288.033a.575.575,0,0,1,.577-.573h9.053A6.469,6.469,0,0,1,129,300.084l4.148,7.69a.574.574,0,0,1-.514.878h-4.027a.541.541,0,0,1-.481-.276l-4.027-8.02h-2.091v7.719a.6.6,0,0,1-.577.577h-3.6a.578.578,0,0,1-.577-.577V288.029Zm9.233,8.48a2.426,2.426,0,0,0,2.3-2.421,2.317,2.317,0,0,0-2.3-2.3H122v4.721Z" transform="translate(-77.112 -287.155)" fill="#fff"/>
    <path id="Path_110" data-name="Path 110" d="M159.587,287.764a.526.526,0,0,1,.544-.723h3.546a.625.625,0,0,1,.544.422l2.605,10.265h.121l4.692-10.659a.578.578,0,0,1,.514-.33h.544a.513.513,0,0,1,.514.33l4.692,10.659h.121l2.605-10.265a.625.625,0,0,1,.544-.422h3.546a.526.526,0,0,1,.544.723l-5.724,20.347a.58.58,0,0,1-.544.427h-.485a.616.616,0,0,1-.514-.335l-5.54-12.385h-.092L166.85,308.2a.611.611,0,0,1-.514.335h-.485a.58.58,0,0,1-.544-.427l-5.724-20.347Z" transform="translate(-101.728 -286.736)" fill="#fff"/>
    <path id="Path_111" data-name="Path 111" d="M218.89,307.447l9.475-20.376a.615.615,0,0,1,.514-.33h.3a.621.621,0,0,1,.514.33l9.479,20.376a.537.537,0,0,1-.514.79H235.3c-.548,0-.786-.184-1.058-.757l-1.091-2.4h-8.237l-1.087,2.421a1.128,1.128,0,0,1-1.091.728H219.4a.536.536,0,0,1-.514-.79Zm12.444-6.477-2.3-5h-.029l-2.271,5h4.6Z" transform="translate(-136.215 -286.736)" fill="#fff"/>
    <path id="Path_112" data-name="Path 112" d="M272.97,288.033a.575.575,0,0,1,.577-.573H282.6a6.469,6.469,0,0,1,2.12,12.624l4.148,7.69a.574.574,0,0,1-.514.878h-4.027a.541.541,0,0,1-.481-.276l-4.027-8.02h-2.091v7.719a.6.6,0,0,1-.577.577h-3.6a.578.578,0,0,1-.577-.577V288.029Zm9.233,8.48a2.426,2.426,0,0,0,2.3-2.421,2.317,2.317,0,0,0-2.3-2.3H277.72v4.721Z" transform="translate(-167.719 -287.155)" fill="#fff"/>
    <path id="Path_113" data-name="Path 113" d="M320.8,288.033a.568.568,0,0,1,.544-.573h7.389a10.6,10.6,0,1,1,0,21.2h-7.389a.572.572,0,0,1-.544-.577Zm7.627,16.14a6.136,6.136,0,0,0,0-12.264h-2.906v12.264Z" transform="translate(-195.549 -287.155)" fill="#fff"/>
    <path id="Path_114" data-name="Path 114" d="M369.99,305.354l1.422-2.513a.783.783,0,0,1,1.029-.184,9.04,9.04,0,0,0,4.3,1.664,1.9,1.9,0,0,0,2.091-1.819c0-1.267-1.058-2.237-3.119-3.057-2.6-1.029-5.871-3.057-5.871-6.69,0-2.994,2.329-6.025,7-6.025a11.259,11.259,0,0,1,6.477,2.27.769.769,0,0,1,.184.966l-1.543,2.333c-.209.335-.757.606-1.029.393-.272-.15-2.484-1.819-4.328-1.819a1.758,1.758,0,0,0-1.907,1.547c0,1.121.907,1.969,3.3,2.935,2.363.941,6.117,2.789,6.117,6.9,0,3.119-2.693,6.268-7.146,6.268-3.939,0-6.117-1.635-6.812-2.333-.3-.3-.393-.426-.151-.849Z" transform="translate(-224.083 -286.73)" fill="#fff"/>
    <path id="Path_115" data-name="Path 115" d="M66.68,357.279a.487.487,0,0,1,.489-.489H72.9a5.8,5.8,0,0,1,5.808,5.729,5.889,5.889,0,0,1-5.783,5.837H68.649v6.092a.508.508,0,0,1-.493.489h-.987a.49.49,0,0,1-.489-.489Zm6.092,9.153a3.96,3.96,0,0,0,3.943-3.964,3.827,3.827,0,0,0-3.943-3.709H68.649v7.673Z" transform="translate(-47.688 -327.495)" fill="#fff"/>
    <path id="Path_116" data-name="Path 116" d="M109.86,357.279a.487.487,0,0,1,.489-.489h6.715a5.574,5.574,0,0,1,5.653,5.524,5.779,5.779,0,0,1-3.839,5.285l3.554,6.59a.488.488,0,0,1-.439.749h-1.321a.432.432,0,0,1-.414-.234l-3.45-6.87h-4.955v6.615a.507.507,0,0,1-.489.489h-1.012a.49.49,0,0,1-.489-.489V357.279Zm7.079,8.844a3.719,3.719,0,1,0,0-7.439h-5.03v7.439Z" transform="translate(-72.812 -327.495)" fill="#fff"/>
    <path id="Path_117" data-name="Path 117" d="M163.228,356.17a9.335,9.335,0,1,1-9.308,9.358A9.313,9.313,0,0,1,163.228,356.17Zm0,16.851a7.52,7.52,0,1,0-7.493-7.493A7.535,7.535,0,0,0,163.228,373.021Z" transform="translate(-98.449 -327.134)" fill="#fff"/>
    <path id="Path_118" data-name="Path 118" d="M206.1,372.629l.544-.623c.414-.389.623-.2.882.079a3.665,3.665,0,0,0,2.513,1.376c1.555,0,3.165-1.142,3.165-3.889V357.279a.488.488,0,0,1,.493-.489h1.012a.493.493,0,0,1,.493.489v12.239c0,3.6-2.179,5.678-5.21,5.678a4.981,4.981,0,0,1-3.943-1.919.553.553,0,0,1,.05-.652Z" transform="translate(-128.735 -327.495)" fill="#fff"/>
    <path id="Path_119" data-name="Path 119" d="M245.06,357.279a.487.487,0,0,1,.489-.489h10.215a.493.493,0,0,1,.493.489v.753a.492.492,0,0,1-.493.493H247.05v6.327h7.443a.511.511,0,0,1,.493.489v.753a.491.491,0,0,1-.493.489H247.05V373.2h8.714a.493.493,0,0,1,.493.489v.753a.491.491,0,0,1-.493.489H245.549a.49.49,0,0,1-.489-.489V357.271Z" transform="translate(-151.479 -327.495)" fill="#fff"/>
    <path id="Path_120" data-name="Path 120" d="M294,356.153a9.1,9.1,0,0,1,6.272,2.409.5.5,0,0,1,.025.723l-.7.7c-.2.263-.414.234-.673-.025a7.845,7.845,0,0,0-4.951-1.944,7.457,7.457,0,0,0,0,14.907,7.529,7.529,0,0,0,4.951-1.944.493.493,0,0,1,.623-.079l.778.7a.5.5,0,0,1-.025.7,8.909,8.909,0,0,1-6.3,2.517,9.335,9.335,0,1,1,0-18.67Z" transform="translate(-174.509 -327.117)" fill="#fff"/>
    <path id="Path_121" data-name="Path 121" d="M337.055,358.525h-4.512a.494.494,0,0,1-.493-.493v-.753a.491.491,0,0,1,.493-.489h10.993a.493.493,0,0,1,.493.489v.753a.491.491,0,0,1-.493.493h-4.512v15.919a.508.508,0,0,1-.493.489h-.983a.511.511,0,0,1-.493-.489Z" transform="translate(-202.095 -327.495)" fill="#fff"/>
  </g>
  <path id="Path_122" data-name="Path 122" d="M262.2,191.41c0,16.366,26.535,29.634,59.264,29.634V191.41Z" transform="translate(-152.563 -111.373)" fill="#6fbc85"/>
  <path id="Path_123" data-name="Path 123" d="M80.524,191.41H21.26v29.634c32.732,0,59.264-13.268,59.264-29.634Z" transform="translate(-12.37 -111.373)" fill="#6fbc85"/>
  <g id="Group_37" data-name="Group 37" transform="translate(8.89 8.919)">
    <path id="Path_124" data-name="Path 124" d="M249.32,50.96c.209,0,.41-.025.619-.029v.029h46.794V21.33H219.69a29.634,29.634,0,0,0,29.634,29.634Z" transform="translate(-136.718 -21.33)" fill="#1488ca"/>
    <path id="Path_125" data-name="Path 125" d="M69.2,50.96v-.025a29.618,29.618,0,0,0,29.1-29.6H21.26V50.964H69.2Z" transform="translate(-21.26 -21.33)" fill="#1488ca"/>
  </g>
  <path id="Path_126" data-name="Path 126" d="M304.978,106.37H233.86c0,16.366,19.9,29.634,44.449,29.634h26.669Z" transform="translate(-136.073 -61.892)" fill="#00a19a"/>
  <path id="Path_127" data-name="Path 127" d="M21.26,106.37V136H47.929c24.549,0,44.449-13.268,44.449-29.634Z" transform="translate(-12.37 -61.892)" fill="#00a19a"/>
</svg>
